# xmcd
#
# Track frame offsets:
#	150
#	22140
#	33407
#	52902
#	64802
#	75940
#	94342
#	110082
#	121827
#	141812
#	152457
#	175467
#	201782
#	216420
#
# Disc length: 3158 seconds
#
# Revision: 0
# Processed by: cddbd v1.4PL0 Copyright (c) Steve Scherf et al.
# Submitted via: dBpowerAMP V4.0
#
DISCID=c10c540e
DTITLE=Jack Hayford - Men in worship
DYEAR=1900
DGENRE=Gospel
TTITLE0=Almighty
TTITLE1=exalt the Lord
TTITLE2=We applaud Your geatness
TTITLE3=Iwant to be where You are
TTITLE4=All heavens declares
TTITLE5=Worship you
TTITLE6=Holy
TTITLE7=Praise the name of Jesus
TTITLE8=Mouening into dansing
TTITLE9=Aman with a perfect heart
TTITLE10=Brake thrugh the chains
TTITLE11=Live a life of worship
TTITLE12=Iam a man
TTITLE13=Let the flame burn brighter
EXTD=
EXTT0=
EXTT1=
EXTT2=
EXTT3=
EXTT4=
EXTT5=
EXTT6=
EXTT7=
EXTT8=
EXTT9=
EXTT10=
EXTT11=
EXTT12=
EXTT13=
PLAYORDER=
